<svg width="73" height="20" viewBox="0 0 73 20" fill="none" xmlns="http://www.w3.org/2000/svg">
<rect x="0.85791" y="0.248779" width="71.3921" height="19.348" rx="5.34802" fill="#EAF3EC"/>
<path d="M16.0144 7.90433C15.9789 7.5897 15.8327 7.34598 15.5757 7.17316C15.3186 6.99812 14.9952 6.9106 14.6052 6.9106C14.326 6.9106 14.0845 6.95491 13.8807 7.04354C13.6768 7.12995 13.5184 7.2496 13.4054 7.40248C13.2946 7.55314 13.2392 7.72486 13.2392 7.91762C13.2392 8.07937 13.2769 8.21896 13.3522 8.33639C13.4298 8.45382 13.5306 8.55242 13.6547 8.63218C13.781 8.70973 13.9161 8.77509 14.0601 8.82827C14.2042 8.87923 14.3426 8.92133 14.4756 8.95456L15.1403 9.12739C15.3574 9.18056 15.5801 9.25257 15.8083 9.34342C16.0365 9.43426 16.2481 9.55391 16.4431 9.70236C16.6381 9.85081 16.7954 10.0347 16.915 10.2541C17.0369 10.4734 17.0978 10.736 17.0978 11.0417C17.0978 11.4273 16.9981 11.7696 16.7987 12.0687C16.6015 12.3678 16.3146 12.6038 15.9379 12.7766C15.5635 12.9494 15.1104 13.0359 14.5786 13.0359C14.069 13.0359 13.6281 12.955 13.2558 12.7932C12.8836 12.6315 12.5922 12.4022 12.3818 12.1053C12.1713 11.8061 12.0549 11.4516 12.0328 11.0417H13.0631C13.083 11.2877 13.1628 11.4926 13.3024 11.6566C13.4442 11.8183 13.6248 11.9391 13.8441 12.0189C14.0657 12.0964 14.3083 12.1352 14.572 12.1352C14.8622 12.1352 15.1203 12.0898 15.3463 11.9989C15.5746 11.9059 15.754 11.7773 15.8848 11.6134C16.0155 11.4472 16.0808 11.2533 16.0808 11.0318C16.0808 10.8301 16.0232 10.6651 15.908 10.5366C15.795 10.4081 15.641 10.3017 15.446 10.2175C15.2533 10.1333 15.035 10.0591 14.7913 9.99483L13.987 9.77547C13.442 9.62702 13.0099 9.40878 12.6908 9.12074C12.374 8.8327 12.2156 8.4516 12.2156 7.97745C12.2156 7.58527 12.3219 7.24295 12.5346 6.95048C12.7473 6.65801 13.0354 6.4309 13.3988 6.26916C13.7621 6.1052 14.172 6.02322 14.6285 6.02322C15.0893 6.02322 15.4959 6.10409 15.8482 6.26583C16.2027 6.42758 16.4819 6.65025 16.6857 6.93386C16.8896 7.21525 16.9959 7.53874 17.0048 7.90433H16.0144ZM21.4791 10.8058V7.81792H22.4761V12.9229H21.499V12.0388H21.4458C21.3284 12.3113 21.1401 12.5384 20.8808 12.7201C20.6238 12.8996 20.3037 12.9893 19.9203 12.9893C19.5924 12.9893 19.3022 12.9173 19.0496 12.7733C18.7992 12.6271 18.602 12.411 18.458 12.1252C18.3162 11.8394 18.2453 11.486 18.2453 11.065V7.81792H19.239V10.9454C19.239 11.2932 19.3354 11.5702 19.5282 11.7762C19.7209 11.9823 19.9713 12.0853 20.2793 12.0853C20.4654 12.0853 20.6504 12.0388 20.8343 11.9457C21.0204 11.8527 21.1744 11.712 21.2963 11.5236C21.4204 11.3353 21.4813 11.096 21.4791 10.8058ZM25.9617 13.0259C25.4676 13.0259 25.0422 12.914 24.6854 12.6902C24.3309 12.4642 24.0584 12.1529 23.8679 11.7563C23.6773 11.3597 23.582 10.9055 23.582 10.3936C23.582 9.87518 23.6795 9.41764 23.8745 9.02103C24.0695 8.62221 24.3442 8.31091 24.6987 8.08712C25.0532 7.86334 25.4709 7.75145 25.9517 7.75145C26.3394 7.75145 26.6851 7.82346 26.9886 7.96748C27.2922 8.10928 27.537 8.30869 27.7231 8.56571C27.9115 8.82273 28.0234 9.12296 28.0588 9.46639H27.0917C27.0385 9.22709 26.9166 9.02103 26.7261 8.84821C26.5378 8.67539 26.2852 8.58898 25.9683 8.58898C25.6914 8.58898 25.4487 8.66209 25.2405 8.80833C25.0344 8.95235 24.8738 9.15841 24.7586 9.4265C24.6433 9.69239 24.5857 10.007 24.5857 10.3704C24.5857 10.7426 24.6422 11.0639 24.7552 11.3342C24.8682 11.6045 25.0278 11.8139 25.2338 11.9624C25.4421 12.1108 25.6869 12.185 25.9683 12.185C26.1567 12.185 26.3273 12.1507 26.4801 12.082C26.6352 12.0111 26.7649 11.9103 26.869 11.7796C26.9753 11.6488 27.0496 11.4915 27.0917 11.3076H28.0588C28.0234 11.6378 27.9159 11.9324 27.7364 12.1917C27.557 12.4509 27.3166 12.6548 27.0152 12.8032C26.7161 12.9517 26.3649 13.0259 25.9617 13.0259ZM31.2718 13.0259C30.7777 13.0259 30.3523 12.914 29.9956 12.6902C29.6411 12.4642 29.3686 12.1529 29.178 11.7563C28.9875 11.3597 28.8922 10.9055 28.8922 10.3936C28.8922 9.87518 28.9897 9.41764 29.1847 9.02103C29.3796 8.62221 29.6544 8.31091 30.0089 8.08712C30.3634 7.86334 30.7811 7.75145 31.2619 7.75145C31.6496 7.75145 31.9953 7.82346 32.2988 7.96748C32.6024 8.10928 32.8472 8.30869 33.0333 8.56571C33.2216 8.82273 33.3335 9.12296 33.369 9.46639H32.4018C32.3487 9.22709 32.2268 9.02103 32.0362 8.84821C31.8479 8.67539 31.5953 8.58898 31.2785 8.58898C31.0015 8.58898 30.7589 8.66209 30.5506 8.80833C30.3446 8.95235 30.1839 9.15841 30.0687 9.4265C29.9535 9.69239 29.8959 10.007 29.8959 10.3704C29.8959 10.7426 29.9524 11.0639 30.0654 11.3342C30.1784 11.6045 30.3379 11.8139 30.544 11.9624C30.7523 12.1108 30.9971 12.185 31.2785 12.185C31.4668 12.185 31.6374 12.1507 31.7903 12.082C31.9454 12.0111 32.075 11.9103 32.1792 11.7796C32.2855 11.6488 32.3597 11.4915 32.4018 11.3076H33.369C33.3335 11.6378 33.2261 11.9324 33.0466 12.1917C32.8671 12.4509 32.6267 12.6548 32.3254 12.8032C32.0263 12.9517 31.6751 13.0259 31.2718 13.0259ZM36.6318 13.0259C36.1289 13.0259 35.6957 12.9184 35.3324 12.7035C34.9712 12.4864 34.692 12.1817 34.4948 11.7895C34.2998 11.3951 34.2024 10.9332 34.2024 10.4036C34.2024 9.88072 34.2998 9.41986 34.4948 9.02103C34.692 8.62221 34.9668 8.31091 35.3191 8.08712C35.6736 7.86334 36.0879 7.75145 36.5621 7.75145C36.8501 7.75145 37.1293 7.79909 37.3996 7.89436C37.6699 7.98963 37.9125 8.13919 38.1274 8.34304C38.3424 8.54688 38.5119 8.81165 38.6359 9.13736C38.76 9.46085 38.8221 9.85413 38.8221 10.3172V10.6695H34.764V9.92503H37.8483C37.8483 9.66358 37.7951 9.43204 37.6887 9.23042C37.5824 9.02657 37.4328 8.86594 37.2401 8.74851C37.0495 8.63107 36.8257 8.57236 36.5687 8.57236C36.2895 8.57236 36.0458 8.64104 35.8375 8.77842C35.6315 8.91357 35.4719 9.09083 35.3589 9.31018C35.2482 9.52732 35.1928 9.76329 35.1928 10.0181V10.5997C35.1928 10.9409 35.2526 11.2312 35.3722 11.4705C35.4941 11.7098 35.6636 11.8926 35.8807 12.0189C36.0979 12.1429 36.3516 12.205 36.6418 12.205C36.8302 12.205 37.0019 12.1784 37.157 12.1252C37.3121 12.0698 37.4461 11.9878 37.5591 11.8793C37.6721 11.7707 37.7585 11.6366 37.8183 11.4771L38.7589 11.6466C38.6836 11.9236 38.5484 12.1662 38.3534 12.3745C38.1607 12.5805 37.9181 12.7412 37.6256 12.8564C37.3353 12.9694 37.0041 13.0259 36.6318 13.0259ZM43.75 9.06424L42.8493 9.22377C42.8117 9.10855 42.7518 8.99888 42.6699 8.89474C42.5901 8.7906 42.4815 8.7053 42.3442 8.63883C42.2068 8.57236 42.0351 8.53912 41.829 8.53912C41.5476 8.53912 41.3128 8.60227 41.1244 8.72856C40.9361 8.85264 40.8419 9.01328 40.8419 9.21048C40.8419 9.38108 40.9051 9.51846 41.0314 9.62259C41.1577 9.72673 41.3615 9.81203 41.6429 9.8785L42.4538 10.0646C42.9236 10.1732 43.2736 10.3405 43.5041 10.5665C43.7345 10.7925 43.8497 11.0861 43.8497 11.4472C43.8497 11.753 43.7611 12.0255 43.5838 12.2648C43.4088 12.5019 43.164 12.688 42.8493 12.8231C42.5369 12.9583 42.1747 13.0259 41.7625 13.0259C41.1909 13.0259 40.7245 12.904 40.3633 12.6603C40.0022 12.4144 39.7806 12.0654 39.6986 11.6134L40.6591 11.4671C40.719 11.7175 40.8419 11.907 41.028 12.0355C41.2142 12.1618 41.4568 12.2249 41.7559 12.2249C42.0816 12.2249 42.3419 12.1573 42.5369 12.0222C42.7319 11.8848 42.8294 11.7175 42.8294 11.5203C42.8294 11.3608 42.7696 11.2267 42.6499 11.1182C42.5325 11.0096 42.3519 10.9276 42.1082 10.8722L41.2441 10.6828C40.7677 10.5742 40.4154 10.4014 40.1872 10.1643C39.9612 9.92725 39.8482 9.62702 39.8482 9.26365C39.8482 8.96232 39.9324 8.69865 40.1008 8.47265C40.2692 8.24665 40.5018 8.07051 40.7987 7.94421C41.0956 7.8157 41.4357 7.75145 41.819 7.75145C42.3707 7.75145 42.805 7.8711 43.1219 8.11039C43.4387 8.34747 43.6481 8.66542 43.75 9.06424ZM48.7677 9.06424L47.867 9.22377C47.8294 9.10855 47.7695 8.99888 47.6876 8.89474C47.6078 8.7906 47.4992 8.7053 47.3618 8.63883C47.2245 8.57236 47.0528 8.53912 46.8467 8.53912C46.5653 8.53912 46.3304 8.60227 46.1421 8.72856C45.9538 8.85264 45.8596 9.01328 45.8596 9.21048C45.8596 9.38108 45.9228 9.51846 46.0491 9.62259C46.1753 9.72673 46.3792 9.81203 46.6606 9.8785L47.4715 10.0646C47.9412 10.1732 48.2913 10.3405 48.5218 10.5665C48.7522 10.7925 48.8674 11.0861 48.8674 11.4472C48.8674 11.753 48.7788 12.0255 48.6015 12.2648C48.4265 12.5019 48.1816 12.688 47.867 12.8231C47.5546 12.9583 47.1923 13.0259 46.7802 13.0259C46.2086 13.0259 45.7422 12.904 45.381 12.6603C45.0199 12.4144 44.7983 12.0654 44.7163 11.6134L45.6768 11.4671C45.7366 11.7175 45.8596 11.907 46.0457 12.0355C46.2318 12.1618 46.4745 12.2249 46.7736 12.2249C47.0993 12.2249 47.3596 12.1573 47.5546 12.0222C47.7496 11.8848 47.8471 11.7175 47.8471 11.5203C47.8471 11.3608 47.7873 11.2267 47.6676 11.1182C47.5502 11.0096 47.3696 10.9276 47.1259 10.8722L46.2618 10.6828C45.7854 10.5742 45.4331 10.4014 45.2049 10.1643C44.9789 9.92725 44.8659 9.62702 44.8659 9.26365C44.8659 8.96232 44.9501 8.69865 45.1185 8.47265C45.2869 8.24665 45.5195 8.07051 45.8164 7.94421C46.1133 7.8157 46.4534 7.75145 46.8367 7.75145C47.3884 7.75145 47.8227 7.8711 48.1396 8.11039C48.4564 8.34747 48.6658 8.66542 48.7677 9.06424ZM52.3895 7.81792V8.61556H49.5047V7.81792H52.3895ZM50.2957 12.9229V7.22633C50.2957 6.90727 50.3655 6.6425 50.5051 6.43201C50.6447 6.2193 50.8297 6.06088 51.0601 5.95675C51.2905 5.85039 51.5409 5.79722 51.8112 5.79722C52.0106 5.79722 52.1812 5.81383 52.323 5.84707C52.4648 5.87809 52.5701 5.90689 52.6388 5.93348L52.4061 6.73777C52.3596 6.72448 52.2998 6.70897 52.2267 6.69124C52.1535 6.6713 52.0649 6.66133 51.9608 6.66133C51.7193 6.66133 51.5464 6.72116 51.4423 6.8408C51.3404 6.96045 51.2894 7.13327 51.2894 7.35927V12.9229H50.2957ZM56.6486 10.8058V7.81792H57.6457V12.9229H56.6685V12.0388H56.6154C56.4979 12.3113 56.3096 12.5384 56.0504 12.7201C55.7933 12.8996 55.4732 12.9893 55.0899 12.9893C54.7619 12.9893 54.4717 12.9173 54.2191 12.7733C53.9687 12.6271 53.7715 12.411 53.6275 12.1252C53.4857 11.8394 53.4148 11.486 53.4148 11.065V7.81792H54.4085V10.9454C54.4085 11.2932 54.5049 11.5702 54.6977 11.7762C54.8905 11.9823 55.1408 12.0853 55.4488 12.0853C55.6349 12.0853 55.8199 12.0388 56.0038 11.9457C56.19 11.8527 56.3439 11.712 56.4658 11.5236C56.5899 11.3353 56.6508 11.096 56.6486 10.8058ZM59.9746 6.11627V12.9229H58.9809V6.11627H59.9746Z" fill="#118A30"/>
</svg>
