<svg width="58" height="55" viewBox="0 0 58 55" fill="none" xmlns="http://www.w3.org/2000/svg">
<rect x="0.75" y="0.248779" width="56.6557" height="54" rx="8" fill="#F3E9EB"/>
<g clip-path="url(#clip0_4107_564)">
<path d="M30.0908 13.3395L42.9453 20.5229C43.3226 20.7113 43.64 21.0011 43.8617 21.3599C44.0834 21.7187 44.2008 22.1321 44.2005 22.5539V24.7316C44.2005 25.7751 43.3536 26.622 42.3101 26.622H41.1759V38.7203H42.6882C43.0893 38.7203 43.4739 38.8797 43.7575 39.1633C44.0412 39.4469 44.2005 39.8315 44.2005 40.2326C44.2005 40.6337 44.0412 41.0184 43.7575 41.302C43.4739 41.5856 43.0893 41.7449 42.6882 41.7449H15.4669C15.0658 41.7449 14.6811 41.5856 14.3975 41.302C14.1139 41.0184 13.9546 40.6337 13.9546 40.2326C13.9546 39.8315 14.1139 39.4469 14.3975 39.1633C14.6811 38.8797 15.0658 38.7203 15.4669 38.7203H16.9792V26.622H15.845C14.8015 26.622 13.9546 25.7751 13.9546 24.7316V22.5539C13.9546 21.7645 14.3629 21.0386 15.0223 20.6272L28.0628 13.3395C28.3778 13.1819 28.7253 13.0999 29.0775 13.0999C29.4298 13.0999 29.7757 13.1819 30.0908 13.3395ZM38.1513 26.622H20.0038V38.7203H24.5407V29.6466H27.5652V38.7203H30.5898V29.6466H33.6144V38.7203H38.1513V26.622ZM29.0775 16.2143L16.9792 23.0197V23.5974H41.1759V23.0197L29.0775 16.2143ZM29.0775 19.0605C29.4786 19.0605 29.8633 19.2198 30.1469 19.5034C30.4305 19.787 30.5898 20.1717 30.5898 20.5728C30.5898 20.9739 30.4305 21.3585 30.1469 21.6421C29.8633 21.9257 29.4786 22.0851 29.0775 22.0851C28.6765 22.0851 28.2918 21.9257 28.0082 21.6421C27.7246 21.3585 27.5652 20.9739 27.5652 20.5728C27.5652 20.1717 27.7246 19.787 28.0082 19.5034C28.2918 19.2198 28.6765 19.0605 29.0775 19.0605Z" fill="#871E35"/>
</g>
<defs>
<clipPath id="clip0_4107_564">
<rect width="36.2951" height="36.2951" fill="white" transform="translate(10.9302 9.98657)"/>
</clipPath>
</defs>
</svg>
