<svg width="50" height="20" viewBox="0 0 50 20" fill="none" xmlns="http://www.w3.org/2000/svg">
<rect x="0.85791" y="0.248779" width="48.3921" height="19.348" rx="5.34802" fill="#FFEFEF"/>
<path d="M12.302 12.9229V6.11627H16.5229V7.00033H13.329V9.07421H16.2204V9.95494H13.329V12.9229H12.302ZM19.1734 13.0359C18.8499 13.0359 18.5574 12.976 18.296 12.8564C18.0345 12.7345 17.8274 12.5584 17.6745 12.3279C17.5238 12.0975 17.4485 11.815 17.4485 11.4804C17.4485 11.1924 17.5039 10.9553 17.6146 10.7692C17.7254 10.5831 17.875 10.4357 18.0633 10.3272C18.2517 10.2186 18.4621 10.1366 18.6948 10.0812C18.9274 10.0258 19.1645 9.98375 19.406 9.95494C19.7118 9.91949 19.9599 9.89069 20.1505 9.86853C20.341 9.84416 20.4795 9.80539 20.5659 9.75221C20.6523 9.69903 20.6956 9.61262 20.6956 9.49297V9.46971C20.6956 9.17946 20.6136 8.95456 20.4496 8.79503C20.2879 8.63551 20.0464 8.55574 19.7251 8.55574C19.3905 8.55574 19.1268 8.62997 18.9341 8.77842C18.7435 8.92465 18.6117 9.0875 18.5386 9.26698L17.6047 9.05427C17.7155 8.74407 17.8772 8.4937 18.0899 8.30315C18.3048 8.11039 18.5519 7.9708 18.8311 7.88439C19.1102 7.79576 19.4038 7.75145 19.7118 7.75145C19.9156 7.75145 20.1317 7.77582 20.3599 7.82457C20.5903 7.8711 20.8052 7.95751 21.0046 8.0838C21.2063 8.21009 21.3713 8.39067 21.4998 8.62554C21.6284 8.85818 21.6926 9.16062 21.6926 9.53286V12.9229H20.7221V12.2249H20.6823C20.618 12.3534 20.5216 12.4797 20.3931 12.6038C20.2646 12.7279 20.0995 12.8309 19.8979 12.9129C19.6963 12.9949 19.4548 13.0359 19.1734 13.0359ZM19.3894 12.2382C19.6642 12.2382 19.899 12.1839 20.094 12.0754C20.2912 11.9668 20.4407 11.825 20.5427 11.6499C20.6468 11.4727 20.6989 11.2832 20.6989 11.0816V10.4236C20.6634 10.459 20.5947 10.4922 20.4928 10.5233C20.3931 10.5521 20.279 10.5776 20.1505 10.5997C20.022 10.6196 19.8968 10.6385 19.7749 10.6562C19.6531 10.6717 19.5512 10.685 19.4692 10.6961C19.2764 10.7205 19.1003 10.7615 18.9407 10.8191C18.7834 10.8767 18.6571 10.9598 18.5618 11.0683C18.4688 11.1747 18.4223 11.3165 18.4223 11.4937C18.4223 11.7397 18.5131 11.9258 18.6948 12.0521C18.8765 12.1762 19.108 12.2382 19.3894 12.2382ZM23.0162 12.9229V7.81792H24.0099V12.9229H23.0162ZM23.5181 7.03024C23.3452 7.03024 23.1968 6.97264 23.0727 6.85742C22.9508 6.73999 22.8899 6.6004 22.8899 6.43866C22.8899 6.2747 22.9508 6.13511 23.0727 6.01989C23.1968 5.90246 23.3452 5.84375 23.5181 5.84375C23.6909 5.84375 23.8382 5.90246 23.9601 6.01989C24.0842 6.13511 24.1462 6.2747 24.1462 6.43866C24.1462 6.6004 24.0842 6.73999 23.9601 6.85742C23.8382 6.97264 23.6909 7.03024 23.5181 7.03024ZM26.3406 6.11627V12.9229H25.3468V6.11627H26.3406ZM29.8776 13.0259C29.3747 13.0259 28.9415 12.9184 28.5781 12.7035C28.217 12.4864 27.9378 12.1817 27.7406 11.7895C27.5456 11.3951 27.4481 10.9332 27.4481 10.4036C27.4481 9.88072 27.5456 9.41986 27.7406 9.02103C27.9378 8.62221 28.2125 8.31091 28.5648 8.08712C28.9193 7.86334 29.3337 7.75145 29.8078 7.75145C30.0959 7.75145 30.375 7.79909 30.6454 7.89436C30.9157 7.98963 31.1583 8.13919 31.3732 8.34304C31.5881 8.54688 31.7576 8.81165 31.8817 9.13736C32.0058 9.46085 32.0678 9.85413 32.0678 10.3172V10.6695H28.0098V9.92503H31.094C31.094 9.66358 31.0409 9.43204 30.9345 9.23042C30.8281 9.02657 30.6786 8.86594 30.4858 8.74851C30.2953 8.63107 30.0715 8.57236 29.8145 8.57236C29.5353 8.57236 29.2916 8.64104 29.0833 8.77842C28.8772 8.91357 28.7177 9.09083 28.6047 9.31018C28.4939 9.52732 28.4385 9.76329 28.4385 10.0181V10.5997C28.4385 10.9409 28.4984 11.2312 28.618 11.4705C28.7399 11.7098 28.9094 11.8926 29.1265 12.0189C29.3436 12.1429 29.5973 12.205 29.8876 12.205C30.0759 12.205 30.2476 12.1784 30.4027 12.1252C30.5578 12.0698 30.6919 11.9878 30.8049 11.8793C30.9179 11.7707 31.0043 11.6366 31.0641 11.4771L32.0047 11.6466C31.9293 11.9236 31.7942 12.1662 31.5992 12.3745C31.4064 12.5805 31.1638 12.7412 30.8714 12.8564C30.5811 12.9694 30.2499 13.0259 29.8776 13.0259ZM35.0814 13.0226C34.6693 13.0226 34.3015 12.9173 33.978 12.7068C33.6567 12.4941 33.4042 12.1917 33.2203 11.7995C33.0386 11.4051 32.9477 10.9321 32.9477 10.3804C32.9477 9.82865 33.0397 9.35671 33.2236 8.96453C33.4097 8.57236 33.6645 8.27213 33.988 8.06386C34.3115 7.85559 34.6782 7.75145 35.0881 7.75145C35.4049 7.75145 35.6597 7.80462 35.8525 7.91098C36.0475 8.01511 36.1981 8.13698 36.3045 8.27657C36.4131 8.41615 36.4972 8.53912 36.5571 8.64548H36.6169V6.11627H37.6106V12.9229H36.6402V12.1285H36.5571C36.4972 12.2371 36.4108 12.3612 36.2978 12.5008C36.1871 12.6404 36.0342 12.7622 35.8392 12.8664C35.6442 12.9705 35.3916 13.0226 35.0814 13.0226ZM35.3008 12.1751C35.5866 12.1751 35.8281 12.0997 36.0253 11.9491C36.2247 11.7962 36.3754 11.5846 36.4773 11.3143C36.5814 11.044 36.6335 10.7293 36.6335 10.3704C36.6335 10.0159 36.5826 9.70568 36.4806 9.4398C36.3787 9.17392 36.2291 8.96675 36.032 8.8183C35.8348 8.66985 35.591 8.59562 35.3008 8.59562C35.0017 8.59562 34.7524 8.67317 34.553 8.82827C34.3536 8.98337 34.2029 9.19497 34.101 9.46306C34.0013 9.73116 33.9514 10.0336 33.9514 10.3704C33.9514 10.7116 34.0024 11.0185 34.1043 11.291C34.2062 11.5635 34.3569 11.7796 34.5563 11.9391C34.7579 12.0964 35.0061 12.1751 35.3008 12.1751Z" fill="#D80027"/>
</svg>
