<svg width="48" height="49" viewBox="0 0 48 49" fill="none" xmlns="http://www.w3.org/2000/svg">
<circle cx="24" cy="24.0847" r="24" fill="#E3E2E2"/>
<g clip-path="url(#clip0_110_1742)">
<path d="M24.8934 11.0407L36.2267 17.3741C36.5594 17.5402 36.8392 17.7957 37.0347 18.112C37.2302 18.4283 37.3336 18.7929 37.3334 19.1647V21.0847C37.3334 22.0047 36.5867 22.7514 35.6667 22.7514H34.6667V33.4181H36C36.3536 33.4181 36.6928 33.5585 36.9428 33.8086C37.1929 34.0586 37.3334 34.3978 37.3334 34.7514C37.3334 35.105 37.1929 35.4442 36.9428 35.6942C36.6928 35.9443 36.3536 36.0847 36 36.0847H12C11.6464 36.0847 11.3073 35.9443 11.0572 35.6942C10.8072 35.4442 10.6667 35.105 10.6667 34.7514C10.6667 34.3978 10.8072 34.0586 11.0572 33.8086C11.3073 33.5585 11.6464 33.4181 12 33.4181H13.3334V22.7514H12.3334C11.4134 22.7514 10.6667 22.0047 10.6667 21.0847V19.1647C10.6667 18.4687 11.0267 17.8287 11.608 17.4661L23.1054 11.0407C23.3831 10.9018 23.6894 10.8295 24 10.8295C24.3106 10.8295 24.6156 10.9018 24.8934 11.0407ZM32 22.7514H16V33.4181H20V25.4181H22.6667V33.4181H25.3334V25.4181H28V33.4181H32V22.7514ZM24 13.5754L13.3334 19.5754V20.0847H34.6667V19.5754L24 13.5754ZM24 16.0847C24.3536 16.0847 24.6928 16.2252 24.9428 16.4753C25.1929 16.7253 25.3334 17.0644 25.3334 17.4181C25.3334 17.7717 25.1929 18.1108 24.9428 18.3609C24.6928 18.6109 24.3536 18.7514 24 18.7514C23.6464 18.7514 23.3073 18.6109 23.0572 18.3609C22.8072 18.1108 22.6667 17.7717 22.6667 17.4181C22.6667 17.0644 22.8072 16.7253 23.0572 16.4753C23.3073 16.2252 23.6464 16.0847 24 16.0847Z" fill="#3C3A37"/>
</g>
<defs>
<clipPath id="clip0_110_1742">
<rect width="32" height="32" fill="white" transform="translate(8 8.08472)"/>
</clipPath>
</defs>
</svg>
